<svg xmlns="http://www.w3.org/2000/svg" viewBox="19.75 24.25 190 60"><g fill="#FFF"><path d="M150.244 67.78l-1.459 1.375c-.336.185-.671.4-1.006.553-1.013.46-2.043.576-2.959.576-.974 0-2.502-.062-4.059-1.189-2.165-1.526-3.111-4.145-3.111-6.429 0-4.728 3.849-7.047 6.988-7.047 1.098 0 2.225.275 3.141.854 1.524 1.007 1.918 2.316 2.136 3.018l-7.17 2.896-2.348.183c.76 3.876 3.383 6.131 6.281 6.131 1.448 0 2.522-.472 3.508-.96.001.001.199-.102.058.039zm-4.325-7.712c.583-.211.885-.395.885-.819 0-1.218-1.378-2.624-3.023-2.624-1.219 0-3.506.949-3.506 4.243 0 .514.061 1.062.092 1.61l5.552-2.41z"/><path d="M135.254 67.543c0 1.186.211 1.37 1.214 1.462.522.061 1.043.089 1.559.15l-1.128.671h-5.375c.705-.915.826-1.005.826-1.615v-.681l-.012-18.13h-2.373l2.284-1.101h4.361c-.945.547-1.227.881-1.349 1.948l-.007 17.296z"/><path d="M126.919 57.115c.699.576 2.162 1.797 2.162 4.115 0 2.258-1.273 3.323-2.558 4.331-.394.396-.854.827-.854 1.492 0 .674.461 1.04.793 1.313l1.102.85c1.339 1.131 2.56 2.167 2.56 4.273 0 2.869-2.776 5.761-8.022 5.761-4.419 0-6.556-2.104-6.556-4.361 0-1.099.546-2.654 2.351-3.719 1.891-1.156 4.453-1.31 5.824-1.401-.428-.553-.917-1.132-.917-2.078 0-.517.155-.825.305-1.188-.333.032-.67.064-.975.064-3.234 0-5.064-2.413-5.064-4.792 0-1.403.64-2.958 1.954-4.086 1.739-1.432 3.812-1.678 5.459-1.678h6.285l-1.954 1.103-1.895.001zm-2.161 13.539c-.249-.033-.399-.033-.701-.033-.277 0-1.924.06-3.2.488-.675.247-2.626.976-2.626 3.143 0 2.162 2.107 3.72 5.366 3.72 2.927 0 4.483-1.404 4.483-3.293-.003-1.555-1.008-2.376-3.322-4.025zm.877-5.795c.705-.703.766-1.676.766-2.229 0-2.193-1.308-5.609-3.843-5.609-.791 0-1.648.397-2.134 1.01-.515.635-.67 1.46-.67 2.252 0 2.042 1.19 5.43 3.811 5.43.765 0 1.587-.371 2.07-.854zM108.011 70.222c-4.848 0-7.441-3.776-7.441-7.193 0-3.994 3.261-7.411 7.899-7.411 4.483 0 7.291 3.51 7.291 7.196-.001 3.598-2.776 7.408-7.749 7.408zm3.814-2.467c.737-.976.916-2.194.916-3.382 0-2.686-1.28-7.808-5.062-7.808a4.246 4.246 0 0 0-2.749 1.036c-1.191 1.067-1.404 2.408-1.404 3.723 0 3.013 1.488 7.983 5.185 7.983 1.194-.001 2.411-.578 3.114-1.552zM91.781 70.222c-4.849 0-7.438-3.776-7.438-7.193 0-3.994 3.262-7.411 7.898-7.411 4.481 0 7.286 3.51 7.286 7.196 0 3.598-2.772 7.408-7.746 7.408zm3.814-2.467c.732-.976.915-2.194.915-3.382 0-2.686-1.283-7.808-5.062-7.808a4.231 4.231 0 0 0-2.744 1.036c-1.193 1.067-1.404 2.408-1.404 3.723 0 3.013 1.495 7.983 5.185 7.983 1.191-.001 2.406-.578 3.11-1.552zM82.404 69.163l-4.088.935c-1.657.261-3.144.492-4.719.492-7.887 0-10.891-5.806-10.891-10.348 0-5.549 4.257-10.692 11.548-10.692 1.543 0 3.028.227 4.38.595 2.143.603 3.144 1.344 3.771 1.779L80.03 54.18l-1.001.224.714-1.139c-.967-.944-2.745-2.688-6.118-2.688-4.511 0-7.914 3.429-7.914 8.435 0 5.376 3.886 10.434 10.116 10.434 1.831 0 2.774-.368 3.629-.711v-4.609l-4.316.232 2.288-1.229h6.058l-.74.713c-.201.17-.227.228-.283.455-.03.26-.057 1.088-.057 1.379l-.002 3.487z"/><g><path d="M159.035 67.91v7.769h-1.543V55.912h1.543v2.25c1.004-1.454 2.841-2.608 4.974-2.608 3.825 0 6.402 2.902 6.402 7.496 0 4.563-2.577 7.525-6.402 7.525-2.014.001-3.817-1.037-4.974-2.665zm9.719-4.859c0-3.462-1.805-6.103-5.005-6.103-1.987 0-3.888 1.563-4.714 2.924v6.327c.826 1.365 2.727 2.983 4.714 2.983 3.2-.001 5.005-2.664 5.005-6.131zM172.518 70.22V50.454h1.542V70.22h-1.542zM191.37 74.4c.329.146.892.238 1.25.238.943 0 1.601-.386 2.191-1.75l1.125-2.549-6.078-14.427h1.721l5.214 12.502 5.162-12.502h1.745l-7.412 17.454c-.769 1.798-1.978 2.663-3.641 2.663-.499 0-1.156-.089-1.542-.207l.265-1.422zM186.863 70.177a26.49 26.49 0 0 1-.238-1.299 8.534 8.534 0 0 1-.074-1.115c-.53.776-1.279 1.422-2.236 1.932-.958.512-1.867.764-3.116.764-1.503 0-2.669-.37-3.502-1.12-.83-.749-1.247-1.764-1.247-3.048 0-1.282.605-2.324 1.81-3.12 1.206-.8 2.765-1.197 4.692-1.197h3.598v-1.779c0-1.024-.35-1.828-1.046-2.413-.699-.584-1.681-.88-2.954-.88-1.163 0-2.107.27-2.825.796-.712.537-1.071 1.202-1.071 2.004h-1.579l-.033-.077c-.057-1.08.437-2.029 1.488-2.847 1.046-.818 2.417-1.229 4.105-1.229 1.681 0 3.042.405 4.069 1.213 1.025.8 1.539 1.956 1.539 3.467v7.059c0 .507.023.997.088 1.474.065.478.169.955.307 1.416h-1.776v-.001zm-5.473-1.124c1.31 0 2.252-.293 3.215-.872.956-.577 1.606-1.328 1.948-2.237v-2.747h-3.615c-1.381 0-2.524.305-3.423.923-.901.615-1.358 1.358-1.358 2.223 0 .815.289 1.469.865 1.963.575.5 1.363.747 2.368.747z"/></g></g><path fill="none" d="M42.562 62.244l4.948-4.948h-.001l-4.947 4.948-15.795-15.792h-.001l15.796 15.795-15.82 15.821 15.82-15.821 4.97 4.971h.003z"/><linearGradient id="a" gradientUnits="userSpaceOnUse" x1="540.169" y1="450.562" x2="519.314" y2="463.615" gradientTransform="scale(1 -1) rotate(-45 -327.78 799.477)"><stop offset="0" stop-color="#d6ffa1"/><stop offset=".326" stop-color="#93e2a7"/><stop offset="1" stop-color="#00a3b5"/></linearGradient><path fill="url(#a)" d="M47.509 57.296L28.226 46.693c-.546-.299-1.051-.369-1.46-.242l15.795 15.794 4.948-4.949z"/><linearGradient id="b" gradientUnits="userSpaceOnUse" x1="528.045" y1="461.711" x2="555.083" y2="454.643" gradientTransform="scale(1 -1) rotate(-45 -327.78 799.477)"><stop offset="0" stop-color="#ff177b"/><stop offset=".672" stop-color="#ffa976"/><stop offset="1" stop-color="#ffec73"/></linearGradient><path fill="url(#b)" d="M47.535 67.218l6.582-3.619c1.335-.737 1.335-1.936 0-2.67l-6.607-3.633-4.949 4.949 4.974 4.973z"/><linearGradient id="c" gradientUnits="userSpaceOnUse" x1="543.137" y1="440.663" x2="513.816" y2="457.914" gradientTransform="scale(1 -1) rotate(-45 -327.78 799.477)"><stop offset="0" stop-color="#63ffd4"/><stop offset=".485" stop-color="#32a0ba"/><stop offset=".835" stop-color="#1262a9"/><stop offset="1" stop-color="#064aa2"/></linearGradient><path fill="url(#c)" d="M26.766 46.452c-.587.183-.966.777-.966 1.676l.004 28.272c0 .887.368 1.473.938 1.668l15.821-15.821-15.797-15.795z"/><linearGradient id="d" gradientUnits="userSpaceOnUse" x1="553.782" y1="454.36" x2="535.728" y2="430.575" gradientTransform="scale(1 -1) rotate(-45 -327.78 799.477)"><stop offset="0" stop-color="#ff4521"/><stop offset=".341" stop-color="#d43e65"/><stop offset=".793" stop-color="#9f36b9"/><stop offset="1" stop-color="#8a33db"/></linearGradient><path fill="url(#d)" d="M26.742 78.068c.41.139.925.074 1.485-.233l19.306-10.617-4.971-4.971-15.82 15.821z"/><g><g fill="#FFF"><path d="M62.668 34.24c0-3.037 2.257-4.99 5.064-4.99 1.881 0 3.11.897 3.877 1.996l-1.375.796a3.113 3.113 0 0 0-2.503-1.288c-1.909 0-3.328 1.447-3.328 3.486 0 2.011 1.418 3.486 3.328 3.486.984 0 1.852-.448 2.286-.868v-1.49h-2.893v-1.489h4.571v3.601a5.213 5.213 0 0 1-3.964 1.765c-2.807 0-5.063-1.981-5.063-5.005zM73.788 39.057v-9.649h6.61v1.49H75.48v2.488h4.818v1.489H75.48v2.691h4.918v1.489l-6.61.002zM85.082 39.057v-8.158H82.16v-1.49h7.536v1.49h-2.921v8.158h-1.693zM95.579 39.057v-9.649h1.692v9.649h-1.692zM101.985 39.057v-8.158h-2.922v-1.49h7.536v1.49h-2.921v8.158h-1.693zM112.062 34.24c0-2.879 2.04-4.99 4.933-4.99 2.878 0 4.933 2.112 4.933 4.99s-2.054 4.99-4.933 4.99c-2.893.001-4.933-2.111-4.933-4.99zm8.13 0c0-1.996-1.259-3.486-3.197-3.486-1.953 0-3.197 1.489-3.197 3.486 0 1.981 1.244 3.486 3.197 3.486 1.938 0 3.197-1.505 3.197-3.486zM130.631 39.057l-5.034-6.9v6.9h-1.692v-9.649h1.736l4.933 6.684v-6.684h1.693v9.649h-1.636z"/></g></g></svg>